# xmcd
#
# Track frame offsets:
#	150
#	11532
#	33947
#	56965
#	75390
#	97785
#	112912
#	130335
#	148730
#	166107
#	180730
#	203332
#	224505
#	244627
#
# Disc length: 3445 seconds
#
# Revision: 1
# Processed by: cddbd v1.5.1PL0 Copyright (c) Steve Scherf et al.
# Submitted via: CDex 1.50Beta5
#
DISCID=b00d730e
DTITLE=TVサントラ - 仮面ライダーI
DYEAR=1989
DGENRE=Soundtrack
TTITLE0=レッツ・ゴー!!ライダー・キック
TTITLE1=秘密結社“ショッカー”
TTITLE2=改造人間のテーマ
TTITLE3=仮面ライダー登場
TTITLE4=恐怖の大軍団
TTITLE5=ライダー・ファイト!
TTITLE6=エンディング
TTITLE7=ライダー・アクション
TTITLE8=勝利の戦士
TTITLE9=V3と少年ライダー隊
TTITLE10=新たなる強敵
TTITLE11=デストロンを叩け
TTITLE12=V3対デストロン怪人
TTITLE13=戦え!仮面ライダーV3
EXTD=
EXTT0=
EXTT1=
EXTT2=
EXTT3=
EXTT4=
EXTT5=
EXTT6=
EXTT7=
EXTT8=
EXTT9=
EXTT10=
EXTT11=
EXTT12=
EXTT13=
PLAYORDER=
